<?xml version="1.0" encoding="UTF-8" standalone="no"?>
<svg
   width="128"
   height="128"
   viewBox="0 0 128 128"
   fill="none"
   version="1.1"
   id="svg13"
   sodipodi:docname="com.system76.CosmicSettings.svg"
   xml:space="preserve"
   inkscape:version="1.4 (e7c3feb100, 2024-10-09)"
   xmlns:inkscape="http://www.inkscape.org/namespaces/inkscape"
   xmlns:sodipodi="http://sodipodi.sourceforge.net/DTD/sodipodi-0.dtd"
   xmlns:xlink="http://www.w3.org/1999/xlink"
   xmlns="http://www.w3.org/2000/svg"
   xmlns:svg="http://www.w3.org/2000/svg"><sodipodi:namedview
     id="namedview13"
     pagecolor="#ffffff"
     bordercolor="#000000"
     borderopacity="0.25"
     inkscape:showpageshadow="2"
     inkscape:pageopacity="0.0"
     inkscape:pagecheckerboard="0"
     inkscape:deskcolor="#d1d1d1"
     inkscape:zoom="5.7890625"
     inkscape:cx="64.259109"
     inkscape:cy="65.036437"
     inkscape:window-width="1920"
     inkscape:window-height="947"
     inkscape:window-x="0"
     inkscape:window-y="0"
     inkscape:window-maximized="1"
     inkscape:current-layer="svg13" /><path
     d="M12 20C12 15.5817 15.5817 12 20 12H108C112.418 12 116 15.5817 116 20V108C116 112.418 112.418 116 108 116H20C15.5817 116 12 112.418 12 108V20Z"
     fill="url(#paint0_linear_1943_454)"
     id="path1" /><path
     d="M 108,64 C 108,88.3005 88.3005,108 64,108 39.6995,108 20,88.3005 20,64 20,39.6995 39.6995,20 64,20 c 24.3005,0 44,19.6995 44,44 z"
     fill="url(#paint1_linear_1943_454)"
     id="path2"
     style="fill:url(#paint1_linear_1943_454)" /><defs
     id="defs13"><linearGradient
       id="linearGradient22"
       inkscape:collect="always"><stop
         style="stop-color:#865817;stop-opacity:1;"
         offset="0"
         id="stop21" /><stop
         style="stop-color:#e19c3b;stop-opacity:1;"
         offset="1"
         id="stop22" /></linearGradient><linearGradient
       id="linearGradient19"
       inkscape:collect="always"><stop
         style="stop-color:#c1c1c1;stop-opacity:1;"
         offset="0"
         id="stop19" /><stop
         style="stop-color:#ffffff;stop-opacity:1;"
         offset="1"
         id="stop20" /></linearGradient><linearGradient
       id="linearGradient16"
       inkscape:collect="always"><stop
         style="stop-color:#865817;stop-opacity:1;"
         offset="0"
         id="stop16" /><stop
         style="stop-color:#e19c3b;stop-opacity:1;"
         offset="1"
         id="stop17" /></linearGradient><linearGradient
       id="linearGradient13"
       inkscape:collect="always"><stop
         style="stop-color:#865817;stop-opacity:1;"
         offset="0"
         id="stop14" /><stop
         style="stop-color:#e19c3b;stop-opacity:1;"
         offset="1"
         id="stop15" /></linearGradient><linearGradient
       id="paint0_linear_1943_454"
       x1="12"
       y1="116"
       x2="116"
       y2="12"
       gradientUnits="userSpaceOnUse"><stop
         stop-color="#229FAD"
         id="stop6"
         offset="0"
         style="stop-color:#bc4bdc;stop-opacity:1;" /><stop
         offset="1"
         stop-color="#49BAC8"
         id="stop7"
         style="stop-color:#6937ba;stop-opacity:1;" /></linearGradient><linearGradient
       id="paint1_linear_1943_454"
       x1="20"
       y1="108"
       x2="108"
       y2="20"
       gradientUnits="userSpaceOnUse"><stop
         stop-color="#69D6E4"
         id="stop8"
         offset="0"
         style="stop-color:#4f1b83;stop-opacity:1;" /><stop
         offset="1"
         stop-color="#90F1FF"
         id="stop9"
         style="stop-color:#06000b;stop-opacity:1;" /></linearGradient><linearGradient
       id="paint2_linear_1943_454"
       x1="28"
       y1="100"
       x2="99.9932"
       y2="27.0069"
       gradientUnits="userSpaceOnUse"><stop
         stop-color="#CF7DFF"
         id="stop10" /><stop
         offset="1"
         stop-color="#7B92B9"
         id="stop11" /></linearGradient><linearGradient
       id="paint3_linear_1943_454"
       x1="32"
       y1="97"
       x2="97.9923"
       y2="32.0076"
       gradientUnits="userSpaceOnUse"><stop
         stop-color="#CDF8FF"
         id="stop12" /><stop
         offset="1"
         stop-color="#F5FEFF"
         id="stop13" /></linearGradient><linearGradient
       inkscape:collect="always"
       xlink:href="#linearGradient13"
       id="linearGradient15"
       x1="61.464451"
       y1="68.535515"
       x2="68.535515"
       y2="61.464455"
       gradientUnits="userSpaceOnUse"
       gradientTransform="matrix(2,0,0,2,-64.999999,-64.999999)" /><linearGradient
       inkscape:collect="always"
       xlink:href="#linearGradient16"
       id="linearGradient17"
       x1="32.861256"
       y1="64.720619"
       x2="64.752266"
       y2="32.829613"
       gradientUnits="userSpaceOnUse" /><linearGradient
       inkscape:collect="always"
       xlink:href="#linearGradient22"
       id="linearGradient18"
       gradientUnits="userSpaceOnUse"
       x1="32.861256"
       y1="64.720619"
       x2="64.752266"
       y2="32.829613"
       gradientTransform="rotate(180,64.093537,63.98596)" /><linearGradient
       inkscape:collect="always"
       xlink:href="#linearGradient19"
       id="linearGradient20"
       x1="77.683884"
       y1="49.251347"
       x2="88.290482"
       y2="38.644741"
       gradientUnits="userSpaceOnUse"
       gradientTransform="translate(4.5128208,-1.4480437)" /><linearGradient
       inkscape:collect="always"
       xlink:href="#linearGradient19"
       id="linearGradient21"
       gradientUnits="userSpaceOnUse"
       x1="77.683884"
       y1="49.251347"
       x2="88.290482"
       y2="38.644741"
       gradientTransform="translate(-40.487179,43.551956)" /></defs><path
     style="fill:url(#linearGradient17);fill-opacity:1"
     d="M 56.140351,68.404858 26.25641,41.28475 c 0,0 2.936572,-4.491228 2.072875,-13.128205 -0.863698,-8.636977 3.80027,17.101215 32.129554,31.956815 28.329285,14.855601 -7.946019,11.40081 -4.318488,8.291498 z"
     id="path16" /><path
     style="fill:url(#linearGradient18);fill-opacity:1"
     d="m 72.04672,59.567061 29.88394,27.120108 c 0,0 -2.936576,4.491228 -2.072876,13.128205 0.863696,8.636976 -3.800268,-17.101215 -32.129552,-31.956815 -28.329285,-14.855601 7.946019,-11.40081 4.318488,-8.291498 z"
     id="path16-7" /><path
     d="m 75,65 c 0,5.5228 -4.4772,10 -10,10 -5.5228,0 -10,-4.4772 -10,-10 0,-5.5228 4.4772,-10 10,-10 5.5228,0 10,4.4772 10,10 z"
     fill="#ffffff"
     id="path6"
     style="fill:url(#linearGradient15);stroke-width:0.999997" /><path
     style="fill:url(#linearGradient20);stroke-width:0.319956"
     d="m 88.224189,35.470885 1.691812,3.584565 c 0.117645,0.249308 0.34512,0.422063 0.608265,0.461978 l 3.783182,0.574852 c 0.662707,0.10077 0.927097,0.952088 0.44775,1.440563 l -2.737502,2.790173 c -0.190237,0.194017 -0.277222,0.47376 -0.232162,0.747607 l 0.646126,3.939878 c 0.113265,0.690015 -0.579481,1.216117 -1.172101,0.89058 l -3.383617,-1.860008 c -0.235298,-0.12924 -0.516585,-0.12924 -0.751883,0 l -3.383617,1.860008 c -0.59262,0.325867 -1.285365,-0.200565 -1.1721,-0.89058 l 0.646125,-3.939878 c 0.04507,-0.273847 -0.04192,-0.55359 -0.232163,-0.747607 l -2.737501,-2.790173 c -0.479348,-0.488805 -0.214958,-1.340123 0.44775,-1.440563 l 3.783181,-0.574852 c 0.263145,-0.0399 0.49062,-0.21267 0.608265,-0.461978 l 1.691813,-3.584565 c 0.295995,-0.627847 1.152067,-0.627847 1.448377,0 z"
     id="path1-5" /><path
     style="fill:url(#linearGradient21);fill-opacity:1;stroke-width:0.319956"
     d="m 43.224189,80.470885 1.691812,3.584565 c 0.117645,0.249308 0.34512,0.422063 0.608265,0.461978 l 3.783182,0.574852 c 0.662707,0.10077 0.927097,0.952088 0.44775,1.440563 l -2.737502,2.790173 c -0.190237,0.194017 -0.277222,0.47376 -0.232162,0.747607 l 0.646126,3.939878 c 0.113265,0.690015 -0.579481,1.216117 -1.172101,0.89058 l -3.383617,-1.860008 c -0.235298,-0.12924 -0.516585,-0.12924 -0.751883,0 l -3.383617,1.860008 c -0.59262,0.325867 -1.285365,-0.200565 -1.1721,-0.89058 l 0.646125,-3.939878 c 0.04507,-0.273847 -0.04192,-0.55359 -0.232163,-0.747607 l -2.737501,-2.790173 c -0.479348,-0.488805 -0.214958,-1.340123 0.44775,-1.440563 l 3.783181,-0.574852 c 0.263145,-0.0399 0.49062,-0.21267 0.608265,-0.461978 l 1.691813,-3.584565 c 0.295995,-0.627847 1.152067,-0.627847 1.448377,0 z"
     id="path1-5-6" /></svg>
